<svg id="fb-logo" xmlns="http://www.w3.org/2000/svg" viewBox="0 0 573.15 573.1"><defs><style>.cls-1,.cls-2,.cls-3{fill:none;stroke:#231f20;stroke-miterlimit:10;}.cls-1{stroke-width:20px;}.cls-2{stroke-width:16px;}.cls-3{stroke-width:12px;}</style></defs><title>fblogo</title><path class="cls-1" d="M47.83,263.38H551.15c17.58.7,26.57,10.13,26.46,28.85V790c-.44,15.46-8.25,24.62-24.61,26.46H52.44C36.37,814.94,25,808.14,24.51,789.1V292.23C23.8,275.07,31.4,265.3,47.83,263.38Z" transform="translate(-14.47 -253.38)"/><path class="cls-2" d="M492.73,351.69v76.39h-59.8c-17.24,1.2-27.31,5.7-27.31,27v66h83.31l-9.68,84H405.62v211.4l-86.77-.19V606.11l-72.25-.69V521.07l74-.69v-75.7C320.58,393.75,353.07,328.18,492.73,351.69Z" transform="translate(-14.47 -253.38)"/><line class="cls-3" x1="6.75" y1="86.9" x2="86.26" y2="7.39"/><line class="cls-3" x1="14.16" y1="214.99" x2="219.16" y2="10"/><line class="cls-3" x1="13.12" y1="359.84" x2="363.81" y2="10"/><line class="cls-3" x1="424.35" y1="92.36" x2="506.41" y2="10.84"/><line class="cls-3" x1="252.51" y1="264.6" x2="306.11" y2="211.04"/><line class="cls-3" x1="14.16" y1="502.71" x2="231.23" y2="285.86"/><line class="cls-3" x1="394.41" y1="267.69" x2="563.15" y2="99.53"/><path class="cls-3" d="M109.17,821.36c69-72.8,142.14-140.7,212.44-212.44" transform="translate(-14.47 -253.38)"/><line class="cls-3" x1="391.15" y1="441.02" x2="563.15" y2="267.62"/><line class="cls-3" x1="267.72" y1="563.1" x2="304.06" y2="526.76"/><line class="cls-3" x1="427.36" y1="560.97" x2="563.14" y2="425.93"/></svg>