<svg id="git-logo" xmlns="http://www.w3.org/2000/svg" viewBox="0 0 581.73 581.73"><defs><style>.cls-1,.cls-2,.cls-4{fill:none;}.cls-1,.cls-2,.cls-3,.cls-4{stroke:#231f20;stroke-miterlimit:10;}.cls-1{stroke-width:20px;}.cls-2{stroke-width:16px;}.cls-3{fill:#231f20;stroke-width:3px;}.cls-4{stroke-width:12px;}</style></defs><title>gitlogo</title><path class="cls-1" d="M44.29,255.19H548.91c21.09-.28,29.57,12,29.34,33V789.1c0,20.13-13.61,26.82-31.21,27.81H49c-23.4,0-32.11-11-32.45-29.68V284.48C16.52,263.89,25.66,255.8,44.29,255.19Z" transform="translate(-6.52 -245.18)"/><path class="cls-2" d="M236.45,767.8c-2.76,9.7-11.55,10.71-24.58,5.62C145.17,749.9,54.94,676.87,51.08,543.81,51.08,417,144,298.06,297.38,298.06c90-.07,244.51,64.13,244.51,244.35,0,106.26-54.77,191.46-159.39,231C372.42,778.5,366,778,359.29,770.2l-3.47-89.46c-1.8-15.07-3.16-18.57-12-25.33-2.23-1.76-1.94-7.23-1.94-7.23,72.19-1.85,109.11-49.69,110.8-112.44.26-29-6.26-49.15-23.87-68.81-1.8-1.91-2.18-6.73.7-10.18,3.89-12.7,2.24-35.9-3.51-58.28-25.27,0-45.22,11.72-62.49,23.17-2.57,3.28-10.15,3.1-13.34,1.4-14.31-4.49-31.33-5.68-52.82-5.61-20.9-.3-40.65,1-53.91,7-3.35.65-8.62.29-11.94-1.41-18.54-13.91-37.91-24.57-60.38-23.87-13.34,25.28-8.53,48.23-4.21,57.58a19.88,19.88,0,0,1-3.51,11.93c-22.47,31.6-21.42,46.7-20.72,70.57,4.92,73.73,36.16,98.3,109.89,108.48,0,0,1.58,4.39-1.17,7.49C238.91,667,240.65,671.88,237.15,685c-60.73,14.74-60.73-19.66-89.41-39.56-7.25-6.08-26-10.06-32.76-3.27-3.16,8.42,13,5.61,20.83,16.61,22.93,19.9,22.52,63.22,71.9,60.88l30.14-2.36Z" transform="translate(-6.52 -245.18)"/><ellipse class="cls-3" cx="140.96" cy="648.12" rx="1.68" ry="3.45" transform="translate(-453.55 96.03) rotate(-50.17)"/><ellipse class="cls-3" cx="152.42" cy="657.82" rx="2.11" ry="4.08" transform="translate(-406.64 24.49) rotate(-41.87)"/><ellipse class="cls-3" cx="162.71" cy="669.68" rx="2.77" ry="4.56" transform="translate(-399.23 16.52) rotate(-40.04)"/><ellipse class="cls-3" cx="174.87" cy="683.38" rx="3.57" ry="5.65" transform="translate(-428 61.43) rotate(-43.36)"/><ellipse class="cls-3" cx="192.1" cy="694.66" rx="3.86" ry="7.14" transform="translate(-535.14 454.69) rotate(-74.96)"/><ellipse class="cls-3" cx="205.71" cy="452.03" rx="6.55" ry="3.6"/><ellipse class="cls-3" cx="231.54" cy="694.81" rx="7.12" ry="3.48" transform="translate(-72.17 -219.74) rotate(-5.51)"/><line class="cls-4" x1="10" y1="89.69" x2="89.67" y2="10"/><line class="cls-4" x1="10.89" y1="164.39" x2="162.22" y2="13.03"/><line class="cls-4" x1="202.93" y1="65.03" x2="253.94" y2="14.02"/><line class="cls-4" x1="10.89" y1="257.1" x2="63.55" y2="204.43"/><line class="cls-4" x1="313.27" y1="50.8" x2="353.41" y2="10.65"/><line class="cls-4" x1="160.64" y1="203.44" x2="199.26" y2="164.54"/><line class="cls-4" x1="9.11" y1="354.98" x2="42.67" y2="321.42"/><line class="cls-4" x1="392.57" y1="76.66" x2="458.57" y2="10.65"/><line class="cls-4" x1="142.53" y1="326.7" x2="294.93" y2="174.3"/><line class="cls-4" x1="10.89" y1="458.36" x2="65.26" y2="403.73"/><line class="cls-4" x1="461.74" y1="117.32" x2="561.66" y2="16.78"/><line class="cls-4" x1="191.13" y1="387.06" x2="417.12" y2="161.79"/><line class="cls-4" x1="147.07" y1="431.39" x2="161.75" y2="416.6"/><line class="cls-4" x1="16.15" y1="562.32" x2="110.9" y2="467.57"/><line class="cls-4" x1="517.17" y1="191.24" x2="571.73" y2="136.65"/><line class="cls-4" x1="231.63" y1="476.99" x2="441.48" y2="267.12"/><line class="cls-4" x1="136.67" y1="571.73" x2="184.25" y2="524.15"/><line class="cls-4" x1="538.13" y1="297.52" x2="571.73" y2="263.92"/><line class="cls-4" x1="264.31" y1="571.36" x2="348.37" y2="487.3"/><line class="cls-4" x1="395.33" y1="571.74" x2="571.72" y2="395.32"/><line class="cls-4" x1="499.32" y1="573.56" x2="572.33" y2="500.54"/></svg>