<svg id="lin-logo" xmlns="http://www.w3.org/2000/svg" viewBox="0 0 571.75 567.79"><defs><style>.cls-1,.cls-2,.cls-3{fill:none;stroke:#231f20;stroke-miterlimit:10;}.cls-1{stroke-width:20px;}.cls-2{stroke-width:16px;}.cls-3{stroke-width:12px;}</style></defs><title>linlogo</title><path class="cls-1" d="M20.63,308.69V785c1.14,24.73,15.6,34.42,36.78,36.51H535.59c20.57.13,32.77-10.25,36.78-31.91V305c-2.66-21.72-15.4-31.18-35.86-31.27H54.66C33.25,275.37,20.34,285.46,20.63,308.69Z" transform="translate(-10.63 -263.75)"/><path class="cls-2" d="M144.31,348.24c27.53-.34,46.44,20.85,46.44,49.65-1.68,27.73-19.19,45.52-46.44,45.52-33.5,0-45.93-21.65-46.89-47.59C97.42,367.09,116.6,347.9,144.31,348.24Z" transform="translate(-10.63 -263.75)"/><rect class="cls-2" x="93.23" y="215.06" width="80.46" height="261.62"/><path class="cls-2" d="M235.35,478.81V740.43h82.3V590.54c1.67-30.11,16.84-46.15,48.39-46.55,27.61-1.26,40.56,16,40.81,49.31V740.43h82.76V570.31c-5.05-71.56-38.05-96.09-107.13-98.39-39.54-.58-68.26,23.33-68.26,23.33l.21-16.44Z" transform="translate(-10.63 -263.75)"/><line class="cls-3" x1="14.6" y1="175.52" x2="180.13" y2="10"/><line class="cls-3" x1="177.8" y1="155.31" x2="319.62" y2="13"/><line class="cls-3" x1="120.82" y1="211.22" x2="153.09" y2="179.25"/><line class="cls-3" x1="11.87" y1="320.78" x2="92.03" y2="240.63"/><line class="cls-3" x1="266.36" y1="216.91" x2="471.86" y2="10"/><line class="cls-3" x1="175.75" y1="305.88" x2="226.83" y2="255.75"/><line class="cls-3" x1="11.87" y1="469.98" x2="90.59" y2="391.27"/><line class="cls-3" x1="438.84" y1="223.62" x2="556.34" y2="106.06"/><line class="cls-3" x1="305.95" y1="356.45" x2="376.17" y2="286.28"/><line class="cls-3" x1="104.61" y1="557.79" x2="225.33" y2="437.07"/><line class="cls-3" x1="476.02" y1="372.67" x2="561.75" y2="286.94"/><path class="cls-3" d="M296.5,826.56c3.1-2.91,111.39-111.39,111.39-111.39" transform="translate(-10.63 -263.75)"/><line class="cls-3" x1="458.75" y1="559.9" x2="563.13" y2="455.53"/></svg>