<svg xmlns="http://www.w3.org/2000/svg" xmlns:xlink="http://www.w3.org/1999/xlink" viewBox="-20 -30 607.68 705.05">
  <defs>
    <radialGradient id="Gradient_bez_nazwy_58" cx="237.26" cy="380.71" r="16.96" gradientUnits="userSpaceOnUse">
      <stop offset=".34" stop-color="#281013"/>
      <stop offset=".61" stop-color="#6f191c"/>
      <stop offset=".87" stop-color="#b02225"/>
      <stop offset="1" stop-color="#ca2528"/>
    </radialGradient>
    <radialGradient id="Gradient_bez_nazwy_76" cx="240.72" cy="378.39" r="24.75" gradientUnits="userSpaceOnUse">
      <stop offset=".22" stop-color="#281013"/>
      <stop offset=".23" stop-color="#301315"/>
      <stop offset=".3" stop-color="#5d2520"/>
      <stop offset=".37" stop-color="#853429"/>
      <stop offset=".45" stop-color="#a64231"/>
      <stop offset=".53" stop-color="#c24c38"/>
      <stop offset=".62" stop-color="#d7553d"/>
      <stop offset=".71" stop-color="#e65b40"/>
      <stop offset=".83" stop-color="#ee5e42"/>
      <stop offset="1" stop-color="#f15f43"/>
    </radialGradient>
    <radialGradient id="Gradient_bez_nazwy_75" cx="239.91" cy="378.66" r="43.7" gradientUnits="userSpaceOnUse">
      <stop offset=".13" stop-color="#281013"/>
      <stop offset=".17" stop-color="#4c1a18"/>
      <stop offset=".21" stop-color="#71241d"/>
      <stop offset=".26" stop-color="#922d21"/>
      <stop offset=".32" stop-color="#ad3425"/>
      <stop offset=".39" stop-color="#c43b28"/>
      <stop offset=".46" stop-color="#d53f2a"/>
      <stop offset=".55" stop-color="#e1432c"/>
      <stop offset=".68" stop-color="#e8442d"/>
      <stop offset="1" stop-color="#ea452d"/>
    </radialGradient>
    <radialGradient id="Gradient_bez_nazwy_87" cx="240.18" cy="378.66" r="22.63" gradientUnits="userSpaceOnUse">
      <stop offset=".01" stop-color="#281013"/>
      <stop offset=".06" stop-color="#471816"/>
      <stop offset=".15" stop-color="#6b211a"/>
      <stop offset=".24" stop-color="#8a291d"/>
      <stop offset=".33" stop-color="#a32f20"/>
      <stop offset=".44" stop-color="#b73422"/>
      <stop offset=".56" stop-color="#c53723"/>
      <stop offset=".72" stop-color="#cd3924"/>
      <stop offset="1" stop-color="#cf3a24"/>
    </radialGradient>
    <radialGradient id="Gradient_bez_nazwy_69" cx="239.09" cy="377.11" r="23.96" gradientUnits="userSpaceOnUse">
      <stop offset=".12" stop-color="#281013"/>
      <stop offset=".13" stop-color="#2b1013"/>
      <stop offset=".19" stop-color="#4b1417"/>
      <stop offset=".25" stop-color="#66171b"/>
      <stop offset=".32" stop-color="#7d1a1d"/>
      <stop offset=".4" stop-color="#8e1c1f"/>
      <stop offset=".5" stop-color="#9a1d21"/>
      <stop offset=".64" stop-color="#a11e22"/>
      <stop offset="1" stop-color="#a31e22"/>
    </radialGradient>
    <radialGradient id="Gradient_bez_nazwy_74" cx="239.91" cy="377.98" r="27.34" gradientUnits="userSpaceOnUse">
      <stop offset=".41" stop-color="#281013"/>
      <stop offset=".44" stop-color="#4a1517"/>
      <stop offset=".47" stop-color="#6a191c"/>
      <stop offset=".51" stop-color="#851d1f"/>
      <stop offset=".56" stop-color="#9c2122"/>
      <stop offset=".61" stop-color="#ad2324"/>
      <stop offset=".68" stop-color="#b92526"/>
      <stop offset=".77" stop-color="#c02627"/>
      <stop offset="1" stop-color="#c22627"/>
    </radialGradient>
    <radialGradient id="Gradient_bez_nazwy_81" cx="237.37" cy="381.26" r="33.97" gradientUnits="userSpaceOnUse">
      <stop offset=".13" stop-color="#281013"/>
      <stop offset=".19" stop-color="#3d1214"/>
      <stop offset=".26" stop-color="#531315"/>
      <stop offset=".35" stop-color="#641416"/>
      <stop offset=".46" stop-color="#701517"/>
      <stop offset=".61" stop-color="#771617"/>
      <stop offset="1" stop-color="#791617"/>
    </radialGradient>
    <radialGradient id="Gradient_bez_nazwy_89" cx="239.64" cy="378.53" r="31" gradientUnits="userSpaceOnUse">
      <stop offset=".01" stop-color="#281013"/>
      <stop offset=".02" stop-color="#2d1114"/>
      <stop offset=".12" stop-color="#4c1517"/>
      <stop offset=".23" stop-color="#651819"/>
      <stop offset=".36" stop-color="#791b1b"/>
      <stop offset=".5" stop-color="#871d1d"/>
      <stop offset=".68" stop-color="#8f1e1e"/>
      <stop offset="1" stop-color="#911e1e"/>
    </radialGradient>
    <radialGradient id="Gradient_bez_nazwy_33" cx="368.73" cy="271.87" r="61.18" gradientUnits="userSpaceOnUse">
      <stop offset=".02" stop-color="#b92126"/>
      <stop offset=".36" stop-color="#bc2126"/>
      <stop offset=".6" stop-color="#c52127"/>
      <stop offset=".8" stop-color="#d42028"/>
      <stop offset=".98" stop-color="#ea202a"/>
      <stop offset="1" stop-color="#ec202a"/>
    </radialGradient>
    <radialGradient id="Gradient_bez_nazwy_55" cx="222.98" cy="291.04" r="56.94" gradientUnits="userSpaceOnUse">
      <stop offset=".08" stop-color="#b62126"/>
      <stop offset=".17" stop-color="#be2226"/>
      <stop offset=".45" stop-color="#d32527"/>
      <stop offset=".73" stop-color="#e02627"/>
      <stop offset="1" stop-color="#e42727"/>
    </radialGradient>
    <radialGradient id="Gradient_bez_nazwy_43" cx="303.34" cy="315.56" r="38.96" gradientUnits="userSpaceOnUse">
      <stop offset=".02" stop-color="#6f0f12"/>
      <stop offset=".24" stop-color="#771114"/>
      <stop offset=".58" stop-color="#8c171a"/>
      <stop offset=".99" stop-color="#ae2024"/>
      <stop offset="1" stop-color="#af2024"/>
    </radialGradient>
    <linearGradient id="Gradient_bez_nazwy_27" x1="447.72" y1="284.02" x2="581.25" y2="284.02" gradientUnits="userSpaceOnUse">
      <stop offset="0" stop-color="#fbb040"/>
      <stop offset="1" stop-color="#f9ed32" stop-opacity=".2"/>
    </linearGradient>
    <linearGradient id="Gradient_bez_nazwy_27-2" x1="447.72" y1="212.03" y2="212.03" xlink:href="#Gradient_bez_nazwy_27"/>
    <linearGradient id="Gradient_bez_nazwy_27-3" x1="457.72" y1="290.25" x2="571.25" y2="290.25" xlink:href="#Gradient_bez_nazwy_27"/>
    <linearGradient id="Gradient_bez_nazwy_27-4" x1="457.72" y1="212.03" x2="571.25" y2="212.03" xlink:href="#Gradient_bez_nazwy_27"/>
    <linearGradient id="Gradient_bez_nazwy_27-5" x1="467.72" y1="293.21" x2="561.25" y2="293.21" xlink:href="#Gradient_bez_nazwy_27"/>
    <linearGradient id="Gradient_bez_nazwy_27-6" x1="467.72" y1="209.33" x2="561.25" y2="209.33" xlink:href="#Gradient_bez_nazwy_27"/>
    <linearGradient id="Gradient_bez_nazwy_105" x1="320.45" y1="401.16" x2="325.07" y2="699.92" gradientUnits="userSpaceOnUse">
      <stop offset="0" stop-color="#999b9e"/>
      <stop offset=".14" stop-color="#a9abae"/>
      <stop offset=".31" stop-color="#b4b6b8"/>
      <stop offset=".49" stop-color="#b8babc"/>
      <stop offset=".72" stop-color="#b6b8ba"/>
      <stop offset=".86" stop-color="#aeb0b2"/>
      <stop offset=".96" stop-color="#a0a2a5"/>
      <stop offset="1" stop-color="#999b9e"/>
    </linearGradient>
    <style>
      .cls-24{fill:none;stroke-miterlimit:10;stroke-width:5px}.cls-22{fill:#ec202a}.cls-24{stroke:#406843}
    </style>
  </defs>
  <g id="Comet">
    <g opacity=".22">
      <path d="M500 192a312.44 312.44 0 0126.33 47.18 294.27 294.27 0 0117.19 50 301.82 301.82 0 017.95 50.82 342.67 342.67 0 01-.22 50.17 334.52 334.52 0 00-14.42-46.92 278.93 278.93 0 00-21.09-42.84 256 256 0 00-27.47-37.3 260.56 260.56 0 00-32.86-31 30.42 30.42 0 1144-41z" transform="translate(-44.61 -137.66)" fill="url(#Gradient_bez_nazwy_27)"/>
      <path d="M452.56 234.65a33.84 33.84 0 1147.78 2.54 33.82 33.82 0 01-47.78-2.54z" transform="translate(-44.61 -137.66)" fill="url(#Gradient_bez_nazwy_27-2)"/>
    </g>
    <g opacity=".68">
      <path d="M492.59 198.65a305.56 305.56 0 0127.41 44.5A289.2 289.2 0 01538.91 291 301.15 301.15 0 01549 340.56a343.17 343.17 0 012.22 49.63 337.74 337.74 0 00-12-47.46 285.49 285.49 0 00-18.9-44.18 263.85 263.85 0 00-25.76-39.42 269.41 269.41 0 00-31.77-33.73 20.12 20.12 0 0126.85-30 20.66 20.66 0 012.69 2.94z" transform="translate(-44.61 -137.66)" fill="url(#Gradient_bez_nazwy_27-3)"/>
      <path d="M460.94 227.11a22.56 22.56 0 1131.86 1.69 22.57 22.57 0 01-31.86-1.69z" transform="translate(-44.61 -137.66)" fill="url(#Gradient_bez_nazwy_27-4)"/>
    </g>
    <path d="M485.15 202.64a296.51 296.51 0 0128.5 41.81 283.52 283.52 0 0120.63 45.77 298.46 298.46 0 0112.31 48.18 344.18 344.18 0 014.66 49.09 341.39 341.39 0 00-9.54-48A290.24 290.24 0 00525 294a272.13 272.13 0 00-24-41.56A278 278 0 00470.28 216a10 10 0 1114.18-14.15c.23.24.46.49.67.74z" transform="translate(-44.61 -137.66)" fill="url(#Gradient_bez_nazwy_27-5)"/>
    <path d="M469.33 216.87a11.28 11.28 0 1115.93.85 11.28 11.28 0 01-15.93-.85z" transform="translate(-44.61 -137.66)" fill="url(#Gradient_bez_nazwy_27-6)"/>
    <animateTransform attributeName="transform" attributeType="XML" type="rotate" from="360 253.57 253.57" to="0 253.57 253.57" dur="1.5s" repeatCount="indefinite"/>
  </g>
  <g id="Poppy">
    <path d="M244 394.44c-4.53 5.41-8.83 9.85-11.56 7.61-7.41-10.86-5.57-20.93 0-28.28-1.22-21.08 15.23-17.54 12.24-4.08 3.45 6.47 2.87 14.89-.68 24.75z" transform="translate(-44.61 -137.66)" fill="url(#Gradient_bez_nazwy_58)"/>
    <path d="M211.76 326.2c-6.53 2.55-12.88 5.27-15.5 11.4-7 4.47-8 14.09-7.2 25.16-1.26 2.58-1.47 5 3.4 6.93 4.27 4.16 11.62 5.25 21.48 3.81 5.17 1.46 11.83 1.81 19.58 1.36 4.3 1 7.92-.21 11.28-2.32 9.94-9.31 9.89-12.8 8.71-15.63 4.2-8.25 5.43-13.61 4.07-16.45-5.89-7.7-12.1-16.49-15.63-15.77-2.29-2.08-6.45-3.36-13.73-3.27-3.49-1.17-5.11 1.52-8.16 1.5-5.16-.04-8.06.78-8.3 3.28z" transform="translate(-44.61 -137.66)" fill="url(#Gradient_bez_nazwy_76)"/>
    <path d="M218.9 336.52c5.8 5.57 11.23 18.37 16.66 31.2a32.54 32.54 0 012.11 16.11c.36 6-1.71 13.79-4.39 22-6.83 14.07-2.34 27.16-9.69 26.71-44.66 2.65-57.92-44.86-37.11-66.08 7.63-6.14 15.19-14.49 22.44-24.67 3.59-5.13 6.93-7.04 9.98-5.27z" transform="translate(-44.61 -137.66)" fill="url(#Gradient_bez_nazwy_75)"/>
    <path d="M273.76 337.53c-6.11-11.83-22.84-19-30.38 2.25 2.09 16.77-1 25.75-2 38.75-4.31 18.21.46 35 12.69 40.33.3.12 2.56-.53 2.3-.72-6.8-4.69-6.55-8.38-5.23-9 6.34-3.59 7.82-15.93 7.37-33.29 2.22-1.83 4.25-7.74 5.46-30.8 3.88-3.64 4.17-5.28 9.79-7.52z" transform="translate(-44.61 -137.66)" fill="url(#Gradient_bez_nazwy_87)"/>
    <path d="M203.61 353.14c10.77-12.74 19.91-12.14 23.93-3.14 4.68 7.1 7.35 16.11 10.39 25.19-12.44-1.07-26.71-2.76-39.42-2.68-8.26-.3-7.63-4.5-1-11.35 1.61-4.86 3.78-6.86 6.1-8.02z" transform="translate(-44.61 -137.66)" fill="url(#Gradient_bez_nazwy_69)"/>
    <path d="M208.3 398.51c-21-2.22-25.9 15-4.8 28.25 15.54 6.52 24.78 6.23 25.9-7.89 2.7-9.56 8.8-26.48 9.8-39-3.57 9.57-10.36 18.57-30.9 18.64z" transform="translate(-44.61 -137.66)" fill="url(#Gradient_bez_nazwy_74)"/>
    <path d="M239.91 379.85c-5.15 27.38 11.22 43.34 16.42 38.29-11.43-8.14-17.13-24.62-16.42-38.29z" transform="translate(-44.61 -137.66)" fill="url(#Gradient_bez_nazwy_81)"/>
    <path d="M250.92 339.06c8.19-1.13 7.55 6.71 2.25 16.63 3.05 4.71-2 12.11-12.65 21.41 2.61-8.45 3.16-19.13 2.86-37.32 3.06-1.97 6.54-3.2 7.54-.72z" transform="translate(-44.61 -137.66)" fill="url(#Gradient_bez_nazwy_89)"/>
    <path d="M195.3 240.87c18.22 21.08 23.08 51.73 27.74 77.9 2.06 30.32 18.39 88.2 20.3 87" stroke-width="5" stroke="#778c5c" stroke-linecap="round" stroke-linejoin="round" fill="none"/>
    <circle cx="239.91" cy="378.53" r="3.01" transform="rotate(-34.65 -3.082 381.16)" fill="#778c5c"/>
    <path d="M272.87 298.86c-.34-31.26 4.33-63.71 20.73-93.44 10.93-19.81 17.91-43.08 19.79-69.71" stroke="#64885d" stroke-width="5" stroke-miterlimit="10" fill="none"/>
    <path d="M316.12 225.64c18.62 29.1 26.27 46.54 34.67 49.9a22.29 22.29 0 009.51 1.09l-29.36-47.18c-2.95-.8-6.88-3.29-11-6.25-.2-1.33-.4-1.77-.81-3.68-1.36 1.71-2.3 2.84-1.94 4.19-.78.38-.89 1.17-1.07 1.93z" transform="translate(-44.61 -137.66)" fill="#b92126"/>
    <path class="cls-22" d="M355.61 277c-.42-.09-.84-.2-1.26-.31a3.69 3.69 0 01-2.42-2.07 293.73 293.73 0 00-27.86-48.74c.75-5.39 4.22-10.18 9-14.68-2.79-4.31 1.49-6.76 8.71-8.43-.07-3.23 10.81-5.86 22.56-8.43 7.52 2.5 13.34 3.87 16.59 3.54 6.29 1.77 12.21 6.79 19.45 11 3.21.46 2.9 7.57 3.53 10.13 7.62 3.87 9 5.57 8.87 9.69 4.94 4.08 2.17 4.23 1.43 11.82 2.7 4-4.18 6.41-4.69 17.14-3.73 5.52-5.9 5.73-6 9.68-5.34 6.06-10 7-12.13 6-15.9.84-8.76 4-18.36-.58-4.51 2.03-12.16 5.49-17.42 4.24z" transform="translate(-44.61 -137.66)"/>
    <path d="M357.1 276.77c7.56-12.29 16-22.54 19.45-30.8 1.4-.5 6.22-7.88 12.14-17.44l5.81-9.48c2.69-2.32 4.19-5.14 7.06-9.89 1.81 1.82 4.53 2.59 5.07 4.08 6.22 4.79 11.85 7.61 11.53 12.13 4.86 3.53 6.9 9.5 7.34 16.86 1.52 3.14-.82 10.78 0 18.22a49.45 49.45 0 00-6.83 14.17l-1.94 2.15c-3.23 4.29-6.46 5.38-9.69 5.67l-22.69-1.64c-4.93-.61-9.42-1.42-14.05-4.58a23.38 23.38 0 01-13.2.55z" transform="translate(-44.61 -137.66)" fill="url(#Gradient_bez_nazwy_33)"/>
    <path class="cls-24" d="M307.62 500.49c-9-28.28-5.71-50-29.1-88.11-8.79-11.53-13.86-33.09-18.22-56.56-1-9.72-12.74-34.73-24.74-60.09" transform="translate(-44.61 -137.66)"/>
    <path d="M175.87 323c13.34 11.44 26.34 5.72 39.26-4.18a44.38 44.38 0 0021.62-12.42L248 294.6l-47.72-31.2c-10.05 1.93-19.57 3.26-25.08 0-7.71-5-13.43-6.82-14.69-1.32-5.82 1.88-9.17 6-6.93 15.09-1.32 4.82-1.08 8.65 1.32 11.11-1.17 10.32 3.67 19 11.53 26.82a11.43 11.43 0 009.44 7.9z" transform="translate(-44.61 -137.66)" fill="#be2227"/>
    <path d="M176 271.52c1.38 6.12 15.22 15.22 33.72 25.43l18.76 7.75 13-38.05 7.21-27.89c.67-3.49-.53-6.74-2.18-9.93-2.18-2.36-5.45-2.42-9.52-.81-3.26-4.79-5.3-6.08-9.79-2.72-15.77-.41-26.22-1.77-27.32 3.8-8.43 4.9-15.9 6.41-14.28 10.2-14.6 6.26-23.83 23.38-9.6 32.22z" transform="translate(-44.61 -137.66)" fill="url(#Gradient_bez_nazwy_55)"/>
    <path d="M238 306.35c17.71-3.74 21.46-15.47 18.86-32.24-.11-7.29-1.2-13.54-3.39-18.63-1.86-14.92-2.39-29.23-4.63-28.5l-12 39.51-28 27z" transform="translate(-44.61 -137.66)" fill="#8b191c"/>
    <path d="M240.45 218.23c-3.35-.61-3.17 2.82 0 9.65a36 36 0 012.18 4.49c-4.1 3.86-7.37 11.6-8.43 29.5A30.37 30.37 0 00222.78 277c-5.94 2.3-10.15 5.2-11.83 9-8.31 3.5-11 9.36 3.6 25.76 6.76 2.61 11.59 1.17 15.64-4.69 20.22-2.31 13.08-8.33 13.25-43.91 3.81-12.79 11.15-18.9 5.5-32.23.7-2.92 1.42-5.8-2.64-17-3.23-.29-5.3.98-5.85 4.3z" transform="translate(-44.61 -137.66)" fill="#ed2f26"/>
    <path class="cls-24" d="M282.81 479.36c16.68-35.32 28.59-68.93 30.73-99a265.28 265.28 0 00-7.88-53.84" transform="translate(-44.61 -137.66)"/>
    <path class="cls-22" d="M320 257.54c3.22 1.85 5 3.75 4.69 5.75 1.41.49 1.9 1.56 1.42 3.23 2 2.63 2.06 5.12 0 7.44a21.55 21.55 0 01-5.41 11.22c.29 2.76-2.86 8-5.8 13.15l-31.9 1.12-6.6-20.95 2.25-11.58a52.75 52.75 0 018.26-10.09 11.11 11.11 0 005.5-2.45 11.85 11.85 0 006.26-2.91c5.7-2.56 8.66-3.13 8.94-1.78 2.84-.06 4.51.28 4.18 1.33 2.76-1.87 5.47 2.06 8.21 6.52z" transform="translate(-44.61 -137.66)"/>
    <path d="M306.91 329.33A50.41 50.41 0 00323.74 317a18.62 18.62 0 017-7.44c1.92-1.78 2.9-3.58 2.5-5.41 1.1-1.79 2.48-2.59 4.12-2.44 10.42-6.86 12-10.06 11-12.24 1.33-3.75 1.4-6.55 0-8.26-1.14-4.9-2.11-6.72-2.95-6.12-5.54 3.18-11.37 6.76-14.64 6.94a24.78 24.78 0 00-10.05 5.71A52.58 52.58 0 01307.53 298z" transform="translate(-44.61 -137.66)" fill="#a61f23"/>
    <path d="M304.43 329.91c2.1.81 4.82-2.44 7.4-4.69l.15-.16c7.71-9.46 11.72-19.74 5.95-32.16a1.35 1.35 0 01-.09-.79c1-5.56-1.79-7.25-6-7.46a1.3 1.3 0 01-1.09-.72c-2.88-5.68-5.79-9-8.73-8.52a1.27 1.27 0 01-1.31-.67 15 15 0 00-9-7.58 1.32 1.32 0 01-.9-.88c-.81-2.66-3.06-4.12-9.64-1.9a1.44 1.44 0 01-.77 0c-4.68-1.26-8.24-1.64-9.48-.18a1.15 1.15 0 01-.69.37c-3.85.76-7.13 2.17-9.27 4.9a1.28 1.28 0 01-1.14.5c-2.19-.25-3.87-.13-3.83 1.28a1.27 1.27 0 01-.78 1.2c-2.08.89-3.89 2.68-4.83 7.34a1.35 1.35 0 000 .53 14.91 14.91 0 01-1.09 8.56 1.29 1.29 0 01-.58.66c-2.09 1.14-3 4.54-.89 13.3a1.37 1.37 0 01-.4 1.28 3.06 3.06 0 00-.73 3.08 1.3 1.3 0 01-.1.8c-2 4.27-2 8.5 3 12.61a1.3 1.3 0 01.45.75c.48 2.29 1.09 4.64 1.86 4.05 1-.76 3-.89 5.44-1.19h.31c8.87 1.06 14.29 1.15 15.65-.76a1.36 1.36 0 011.37-.62 10.47 10.47 0 015.52 2.72 2.68 2.68 0 001.94.94c3.62.09 5.43.36 6.78 1.56a2.13 2.13 0 00.89.29c6.89 2.03 10.2 1.22 14.63 1.56z" transform="translate(-44.61 -137.66)" fill="#dc3926"/>
    <path d="M259.6 276.68c5.18 1.78 9.53 10.46 14 19.92 2.73 12 7.5 20.79 14 26.63 3.86 3.5 8.42 6.81 15.1 7.12a9.45 9.45 0 007.44-2.45c13.36-13.87 12.57-25.14 8.47-35.79.56-5.95-2.22-8.46-7.34-8.56-2.87-6.07-6.13-9.59-10-9.08-2-4.41-5.47-6.86-9.58-8.36-.79-3.18-3.78-4-11-1.64a5.76 5.76 0 01-1.45 4.7c-1.5.47-3.69 6.7-5.82 12.44-3.42-3.13-8.13-4.68-13.82-4.93z" transform="translate(-44.61 -137.66)" fill="url(#Gradient_bez_nazwy_43)"/>
    <path d="M255.14 445.29l87.74-87-5.6 127.47a23.08 23.08 0 001.29 8.76l73.2 208.21H238.46l32.36-202.78a7.54 7.54 0 00-.23-3.37z" transform="translate(-44.61 -137.66)" fill="url(#Gradient_bez_nazwy_105)"/>
    <path fill="#999b9e" d="M227.34 290.96l16.01 65.16-23.75 208.93h-25.75l32.44-204.4-15.76-53.03 16.81-16.66z"/>
    <path fill="#c9cacc" d="M292.13 226.7l-25.86 131.73 96.5 206.62h4.39l-74.24-212.43 5.35-132.01-6.14 6.09z"/>
  </g>
</svg>
